<?xml version="1.0" standalone="no"?>
<!DOCTYPE svg PUBLIC "-//W3C//DTD SVG 20010904//EN"
 "http://www.w3.org/TR/2001/REC-SVG-20010904/DTD/svg10.dtd">
<svg version="1.0" xmlns="http://www.w3.org/2000/svg"
 width="644.000000pt" height="32.000000pt" viewBox="0 0 644.000000 32.000000"
 preserveAspectRatio="xMidYMid meet">
<metadata>
Created by potrace 1.16, written by Peter Selinger 2001-2019
</metadata>
<g transform="translate(0.000000,32.000000) scale(0.069622,-0.039024)"
fill="#000000" stroke="none">
<path d="M0 410 l0 -410 4625 0 4625 0 0 410 0 410 -4625 0 -4625 0 0 -410z
m8780 130 c5 -20 13 -26 42 -28 35 -3 37 -5 40 -40 2 -29 8 -38 25 -40 23 -3
41 -38 26 -52 -4 -4 -17 -10 -28 -12 -15 -2 -21 -12 -23 -41 -3 -36 -4 -37
-42 -37 -32 0 -39 4 -42 23 -2 16 -10 22 -28 22 -18 0 -26 -6 -28 -22 -3 -19
-10 -23 -43 -23 -39 0 -39 0 -39 39 0 33 4 40 23 43 16 2 22 10 22 28 0 18 -6
26 -22 28 -19 3 -23 10 -23 42 0 38 1 39 37 42 29 2 39 8 42 23 7 42 52 45 61
5z m-7188 -9 c36 -18 37 -18 57 3 l21 20 0 -57 0 -57 -57 0 -56 0 22 24 23 24
-25 17 c-59 38 -142 -13 -141 -87 3 -89 105 -127 165 -60 31 35 49 41 49 16 0
-22 -52 -72 -84 -80 -41 -10 -94 4 -129 36 -29 25 -32 34 -32 83 0 112 90 168
187 118z m799 4 c89 -47 89 -183 0 -230 -61 -31 -136 -11 -171 48 -68 111 55
242 171 182z m1904 -101 c9 -19 13 -39 10 -44 -3 -6 -28 -10 -55 -10 -41 0
-48 -3 -43 -16 5 -13 15 -15 50 -10 23 3 43 2 43 -2 0 -37 -90 -45 -114 -10
-30 42 -15 111 26 127 37 13 66 1 83 -35z m-1594 -16 l12 -53 15 53 c18 65 47
73 57 14 7 -42 25 -79 25 -52 0 35 22 90 35 90 19 0 19 0 -6 -82 -23 -78 -46
-89 -62 -28 -13 54 -23 55 -36 5 -16 -65 -39 -58 -63 20 -22 73 -22 85 -4 85
9 0 19 -20 27 -52z m214 12 c9 -56 21 -57 34 -4 14 55 40 57 54 4 13 -53 24
-56 32 -10 6 36 27 61 40 48 2 -2 -6 -36 -17 -76 -27 -91 -48 -97 -68 -19
l-14 52 -14 -52 c-11 -40 -20 -53 -33 -53 -11 0 -19 3 -19 8 0 4 -9 37 -19 75
-19 65 -19 67 -1 67 14 0 20 -10 25 -40z m215 -2 c6 -24 12 -47 14 -53 1 -5 9
14 16 43 10 36 19 52 30 52 12 0 21 -16 32 -52 l14 -53 13 53 c8 33 18 52 28
52 11 0 13 -7 7 -32 -28 -128 -53 -151 -77 -71 -14 46 -15 47 -25 23 -5 -14
-11 -34 -13 -45 -3 -12 -12 -20 -23 -20 -15 0 -23 14 -37 65 -22 80 -22 80 -4
80 8 0 19 -17 25 -42z"/>
<path d="M2283 515 c-29 -12 -63 -58 -63 -85 0 -5 17 -10 38 -10 21 0 48 -7
60 -16 28 -19 30 -54 2 -54 -13 0 -20 -7 -20 -20 0 -42 99 -11 124 39 23 44
20 50 -19 44 -26 -4 -36 -2 -41 11 -3 9 -17 16 -30 16 -19 0 -24 5 -24 24 0
16 7 27 20 31 25 8 27 35 3 35 -10 -1 -32 -7 -50 -15z"/>
</g>
</svg>
