 <svg  version="1.0" xmlns="http://www.w3.org/2000/svg"  width="300.000000pt" height="144.000000pt" viewBox="0 0 300.000000 144.000000"  preserveAspectRatio="xMidYMid meet">  <g transform="translate(0.000000,144.000000) scale(0.100000,-0.100000)" fill="#ffffff" stroke="none"> <path d="M40 715 l0 -685 1460 0 1460 0 0 685 0 685 -1460 0 -1460 0 0 -685z m2840 0 l0 -605 -1380 0 -1380 0 0 605 0 605 1380 0 1380 0 0 -605z"/> <path d="M241 720 l0 -480 58 0 58 0 1 480 2 480 -60 0 -60 0 1 -480z"/> <path d="M815 1186 c-189 -60 -285 -220 -285 -476 0 -319 161 -497 431 -477 84 7 207 47 226 74 14 18 18 117 6 111 -5 -1 -37 -18 -73 -36 -152 -76 -318 -53 -393 55 -40 59 -55 103 -68 201 -13 106 0 227 33 305 27 62 103 131 162 146 95 24 206 6 280 -44 20 -14 41 -25 45 -25 5 0 13 24 19 53 10 47 9 54 -10 69 -11 10 -49 27 -85 38 -76 23 -224 26 -288 6z"/> <path d="M1505 1180 c-185 -73 -236 -294 -95 -413 21 -18 99 -64 172 -103 145 -76 178 -109 178 -171 0 -160 -208 -214 -379 -98 l-52 34 -9 -25 c-6 -14 -10 -45 -10 -69 0 -43 0 -44 53 -63 175 -66 322 -51 426 44 74 66 106 163 82 250 -20 73 -77 125 -220 198 -71 37 -145 83 -165 102 -31 31 -36 41 -36 83 0 58 28 105 80 133 53 29 157 22 233 -17 66 -33 71 -31 81 43 4 32 2 48 -6 54 -31 19 -90 31 -183 34 -82 3 -109 1 -150 -16z"/> <path d="M2302 1173 c-6 -16 -69 -190 -142 -388 -72 -198 -147 -402 -166 -453 l-33 -93 61 3 62 3 8 40 c4 22 22 79 39 128 l31 87 204 0 203 0 30 -92 c16 -51 32 -110 36 -130 l7 -38 59 0 c41 0 59 4 59 12 0 7 -70 223 -156 480 l-156 468 -68 0 c-65 0 -68 -1 -78 -27z m158 -342 c39 -122 69 -225 67 -227 -2 -3 -76 -3 -165 -2 l-160 3 42 115 c23 63 62 168 86 233 23 65 46 115 50 110 4 -4 40 -109 80 -232z"/> </g> </svg> 